<svg width="42" height="42" viewBox="0 0 42 42" fill="none" xmlns="http://www.w3.org/2000/svg">
<rect width="42" height="42" rx="21" fill="white"/>
<path d="M32 18.1553C32 19.7791 31.3765 21.3388 30.2631 22.4925C27.7001 25.1492 25.2143 27.9194 22.5556 30.4797C21.9461 31.058 20.9794 31.0369 20.3962 30.4324L12.7364 22.4925C10.4212 20.0926 10.4212 16.2181 12.7364 13.8181C15.0745 11.3946 18.8833 11.3946 21.2213 13.8181L21.4998 14.1067L21.778 13.8183C22.899 12.6557 24.4257 12 26.0206 12C27.6154 12 29.142 12.6557 30.2631 13.8181C31.3766 14.972 32 16.5316 32 18.1553Z" stroke="#50614A" stroke-width="2" stroke-linejoin="round"/>
</svg>
